         <svg width="120" height="36" viewBox="0 0 161 48" fill="none" xmlns="http://www.w3.org/2000/svg">
                    <path d="M30.7984 40.8V16.3196H35.1661V19.525C36.6102 17.0946 39.3929 15.7913 42.5982 15.7913C47.917 15.7913 51.4394 19.525 51.4394 25.1255C51.4394 30.7261 47.7057 34.4598 42.3869 34.4598C39.2168 34.4598 36.6102 33.1213 35.307 31.184V40.8H30.7984ZM40.978 31.1135C44.606 31.1135 46.8251 28.824 46.8251 25.0903C46.8251 21.3566 44.6412 19.1375 41.1541 19.1375C37.5965 19.1375 35.2013 21.2862 35.2013 24.6676V25.5834C35.2013 28.9297 37.4908 31.1135 40.978 31.1135Z" fill="#2C4060"/>
                    <path d="M62.9233 34.4598C56.4422 34.4598 52.4619 31.0783 52.4619 25.3016C52.4619 19.3136 56.5126 15.7913 62.712 15.7913C69.017 15.7913 72.7155 19.0318 72.7155 24.6324V26.2527H56.8649C57.041 29.2819 59.3657 31.1135 63.0642 31.1135C65.7764 31.1135 67.8194 30.0216 68.9113 28.0491L72.4337 29.6694C70.6725 32.769 67.3967 34.4598 62.9233 34.4598ZM56.8649 23.3996H68.2069V23.2234C68.2069 20.3351 65.9173 18.6796 62.6415 18.6796C59.1896 18.6796 57.041 20.476 56.8649 23.3996Z" fill="#2C4060"/>
                    <path d="M74.0586 33.9314V16.3196H78.4264V20.0886C79.8353 17.2707 82.4066 15.7913 85.929 15.7913C90.8955 15.7913 93.5373 18.6444 93.5373 23.9984V33.9314H89.0639V24.6676C89.0639 21.0748 87.4436 19.3136 84.203 19.3136C80.7159 19.3136 78.5673 21.5679 78.5673 25.3016V33.9314H74.0586Z" fill="#2C4060"/>
                    <path d="M96.0819 33.9314V8.92269H109.432C115.596 8.92269 117.85 12.128 117.85 15.4038C117.85 17.9399 116.406 20.1942 113.377 20.9339C116.793 21.4975 118.554 23.7166 118.554 26.9571C118.554 30.6556 116.089 33.9314 109.819 33.9314H96.0819ZM108.903 30.3738C112.285 30.3738 113.588 28.6831 113.588 26.5697C113.588 24.421 112.214 22.9064 109.079 22.9064H100.908V30.3738H108.903ZM112.919 15.9322C112.919 14.2062 111.932 12.4803 108.516 12.4803H100.908V19.4545H108.516C112.144 19.4545 112.919 17.5877 112.919 15.9322Z" fill="#2C4060"/>
                    <path d="M129.975 34.4598C123.74 34.4598 119.443 30.9022 119.443 25.1255C119.443 19.3136 123.776 15.7913 129.975 15.7913C136.174 15.7913 140.472 19.3136 140.472 25.1255C140.472 30.9374 136.174 34.4598 129.975 34.4598ZM129.975 31.1487C133.568 31.1487 135.822 28.9649 135.822 25.1255C135.822 21.2509 133.532 19.1023 129.975 19.1023C126.347 19.1023 124.093 21.2509 124.093 25.1255C124.093 29.0001 126.347 31.1487 129.975 31.1487Z" fill="#2C4060"/>
                    <path d="M139.315 33.9314L147.1 24.879L139.738 16.3196H145.127L148.896 20.8635C149.425 21.5679 149.777 22.1315 149.953 22.5542H149.988C150.2 22.0963 150.587 21.5327 151.045 20.8987L154.779 16.3196H160.027L152.736 24.879L160.59 33.9314H155.131L150.939 29.0353C150.376 28.3661 150.023 27.8025 149.812 27.3446H149.777C149.601 27.7321 149.178 28.3309 148.579 29.0706L144.423 33.9314H139.315Z" fill="#2C4060"/>
                    <path d="M26.7057 28.5606C24.6433 32.1348 21.7502 34.389 18.0274 35.3224C14.4158 36.1799 10.9011 35.6217 7.48429 33.6494C4.47801 31.9132 2.36479 29.5199 1.14463 26.4676C-0.424699 22.479 -0.0189348 18.4214 2.36096 14.2947C4.43868 10.6947 7.35671 8.45579 11.117 7.57808C12.2633 7.31333 13.4 7.18671 14.5242 7.2011L8.62292 17.4305C8.52316 17.6003 8.42243 17.772 8.32171 17.9466C6.50202 21.1006 5.41328 23.7299 5.05548 25.8354C4.57106 28.8129 5.6387 31.0585 8.25936 32.5722C9.44115 33.2552 10.5827 33.5631 11.681 33.4979C14.5108 33.3434 17.5391 30.4686 20.7689 24.8704C22.1329 22.504 23.0855 20.409 23.6246 18.5835C24.7277 14.7715 23.827 12.0261 20.9243 10.3493C20.0514 9.84478 19.1756 9.55029 18.3008 9.46492C17.2513 9.34501 16.1866 9.5714 15.1065 10.146H15.1084L14.4436 9.76325C14.4436 9.76325 17.1266 6.63227 21.7003 9.27307C24.604 10.9498 26.6721 13.2127 27.9057 16.0626C29.6084 20.0588 29.2093 24.2239 26.7076 28.5606H26.7057Z" fill="#2C4060"/>
                </svg>